<svg xmlns="http://www.w3.org/2000/svg" width="1200" height="630" viewBox="0 0 1200 630">
  <rect width="1200" height="630" fill="#0F1F38"/>
  <!-- Bar chart motif -->
  <rect x="860" y="330" width="64" height="250" rx="8" fill="#00C4B3" opacity="0.9"/>
  <rect x="948" y="240" width="64" height="340" rx="8" fill="#00C4B3" opacity="0.9"/>
  <rect x="1036" y="140" width="64" height="440" rx="8" fill="#FFFFFF"/>

  <g transform="translate(80,76) scale(2)">
    <rect width="32" height="32" rx="8" fill="#00C4B3"/>
    <rect x="8" y="17" width="4" height="7" rx="1" fill="#0F1F38"/>
    <rect x="14" y="12" width="4" height="12" rx="1" fill="#0F1F38"/>
    <rect x="20" y="7" width="4" height="17" rx="1" fill="#0F1F38"/>
  </g>
  <text x="164" y="124" font-family="Inter, Arial, sans-serif" font-size="30" font-weight="700" fill="#FFFFFF" letter-spacing="-0.5">FreeMarketing<tspan fill="#00C4B3">Calc</tspan></text>

  <text x="80" y="285" font-family="Inter, Arial, sans-serif" font-size="76" font-weight="700" fill="#FFFFFF" letter-spacing="-2">Free Marketing</text>
  <text x="80" y="370" font-family="Inter, Arial, sans-serif" font-size="76" font-weight="700" fill="#00C4B3" letter-spacing="-2">Calculators</text>
  <text x="80" y="430" font-family="Inter, Arial, sans-serif" font-size="26" fill="#B6C2D4">ROI · ROAS · CAC · Budget · CPM · Salary · Conversion</text>

  <rect x="80" y="475" width="186" height="46" rx="23" fill="none" stroke="#00C4B3" stroke-width="1.5"/>
  <text x="173" y="505" font-family="Inter, Arial, sans-serif" font-size="17" font-weight="600" fill="#00C4B3" text-anchor="middle">✓ 16 free tools</text>
  <rect x="284" y="475" width="226" height="46" rx="23" fill="none" stroke="#00C4B3" stroke-width="1.5"/>
  <text x="397" y="505" font-family="Inter, Arial, sans-serif" font-size="17" font-weight="600" fill="#00C4B3" text-anchor="middle">✓ No signup required</text>
  <rect x="528" y="475" width="250" height="46" rx="23" fill="none" stroke="#00C4B3" stroke-width="1.5"/>
  <text x="653" y="505" font-family="Inter, Arial, sans-serif" font-size="17" font-weight="600" fill="#00C4B3" text-anchor="middle">✓ Updated October 2026</text>

  <text x="80" y="582" font-family="Inter, Arial, sans-serif" font-size="22" fill="#B6C2D4">freemarketingcalculator.com</text>
</svg>
